#!OML:ASF E:/inclinewalkrobotboard/Project1/Captureday1/Session1/subject1.ASF
:FULLY-SPECIFIED
:DEGREES
213
root 0 0 0 1.795425855089251 -10.796044139132809 0.8777849312126023
lowerback 0.05858609183873398 -1.6439492838237333 -2.5102709464517146
upperback -0.5819703769022481 -2.162254198820821 2.0794769339728845
thorax -0.4339590754056567 -1.0662108664363446 3.5017816503890384
lowerneck -25.793991989987404 -1.5895150216681593 -7.437527173690392
upperneck 26.211654657465353 0.4993819177795234 1.8586555080706428
head 13.153580117086037 -0.48690181187270054 2.173385908681445
rclavicle 1.0912773823969396E-15 -2.78078737728937E-15
rhumerus -34.045166815022 -3.1998984076751547 -77.85644400605908
rradius 28.3166837794805
rwrist 20.45107857836564
rhand -17.622689750283282 9.035301961453538
rfingers 7.125019999999934
rthumb 8.629916591034295 -20.74638866335643
lclavicle 7.57019503229982E-16 -6.45692513785231E-16
lhumerus -21.073889231293528 -7.607013549031192 91.0334922600533
lradius 66.26707264238469
lwrist 3.0922235473501485
lhand -28.359212979247495 22.04120787716923
lfingers 7.125020000000019
lthumb -1.7597399182080435 52.09619499080781
rfemur -21.686602523540884 7.298386614323551 32.600581030518114
rtibia 19.236520477095738
rfoot -3.8329663997989876 -7.150410710721276
rtoes 10.96749043183779
lfemur -2.441856116629635 -1.0269781506701492 -17.20794223042426
ltibia 49.373462809391356
lfoot 11.321063366392522 -14.486773417450852
ltoes -8.528529874693527
214
root 0 0 0 1.7222182726130297 -10.800990136264849 0.7897465107795074
lowerback 0.09322598411478378 -1.6015861281358268 -2.4514918841978366
upperback -0.622178862092242 -2.1042260415701857 2.0235335375441834
thorax -0.4999655721552422 -1.0354278301152802 3.4115799124687802
lowerneck -25.088727778428183 -1.5136721261765844 -7.393706722878956
upperneck 27.633582447198332 0.6033103280639887 1.596849561019683
head 13.553460016733817 -0.5149612661327602 2.112720830899317
rclavicle -9.806784480859476E-17 -2.266889606857805E-15
rhumerus -33.94066309704278 -3.942778736746768 -78.23992808555754
rradius 28.5406321981722
rwrist 20.483927068554156
rhand -17.467257443878133 8.970062130334467
rfingers 7.125019999999933
rthumb 8.779328061371443 -20.806546944023584
lclavicle 1.5484403074884912E-16 -1.1185055697124751E-15
lhumerus -21.67470915452234 -6.064436390653432 91.45657353102841
lradius 65.56035151427855
lwrist 2.400637235202575
lhand -28.551380380373566 21.39003691292152
lfingers 7.125020000000025
lthumb -1.9329251119013007 51.416733880285015
rfemur -14.333807959701463 7.119133164922368 36.1077681381509
rtibia 26.138572920787272
rfoot -8.976123387346792 -6.19545792789374
rtoes 14.40415108704979
lfemur -6.490077426209526 -0.07874536184810643 -15.91041729252245
ltibia 52.37317754347319
lfoot 9.762488356820128 -12.86600507078651
ltoes -8.71947283702875
215
root 0 0 0 1.6961897792385658 -10.78695327329848 0.7496304239310645
lowerback 0.08865904126298241 -1.5738585740341768 -2.452047207215163
upperback -0.6463294531942478 -2.066050602972448 1.975309017757958
thorax -0.5255960505888354 -1.0149066001372289 3.3636845436251495
lowerneck -24.64550600537078 -1.4922299074484062 -7.423693895885995
upperneck 28.386062092970718 0.6116552704486707 1.541239703151357
head 13.742039316781604 -0.5384506875829502 2.1092569150161946
rclavicle -3.358521520079812E-15 -3.1377748745472974E-16
rhumerus -33.60219213384579 -4.761680022401061 -79.1373805649164
rradius 29.183198859762303
rwrist 20.468005478744015
rhand -17.322045136394365 8.783218907431118
rfingers 7.125019999999941
rthumb 8.920408807263472 -21.00727456439844
lclavicle -1.7819331932551627E-15 -4.586934578877396E-16
lhumerus -22.017673411439908 -5.646071349312566 91.92059893200083
lradius 65.14604137558584
lwrist 1.9201209976112037
lhand -28.863433445453655 20.89993901649365
lfingers 7.125020000000026
lthumb -2.229095673260133 50.90066525423733
rfemur -5.381283097766802 7.790942840177096 38.18766157983741
rtibia 26.69048553550573
rfoot -16.892281383134392 -6.674845786981775
rtoes 13.886892308274636
lfemur -18.030079507358543 2.1640454986988 -13.94338603180815
ltibia 56.285325006314864
lfoot 1.5807686910854795 -7.029698165232234
ltoes -8.164325430964967
216
root 0 0 0 1.702117198052613 -10.764829051930104 0.7452643770073348
lowerback 0.06939641368707217 -1.5595356920622603 -2.4768482187075564
upperback -0.6570680544145988 -2.0455912839705364 1.9510492545535545
thorax -0.5277585850062754 -1.0038622383668496 3.3531488265965805
lowerneck -24.48703859797086 -1.5072691203019999 -7.471739700779539
upperneck 28.53392896891052 0.566476631684073 1.6045966312401925
head 13.75811310748856 -0.5543291599522899 2.1332400464398913
rclavicle -3.566510932747591E-15 5.493710488976604E-16
rhumerus -33.097854316437775 -4.821871807300141 -79.99988600549449
rradius 29.831827746247104
rwrist 20.219933003423673
rhand -17.351453487100258 8.733777329868106
rfingers 7.125019999999942
rthumb 8.893099679230655 -21.075471963188704
lclavicle -1.0744099568120723E-15 2.540836215503249E-16
lhumerus -21.92564674499333 -5.463423912924872 92.02821250892761
lradius 65.02743598762147
lwrist 1.7444765370374262
lhand -29.018414126040042 20.849062665199824
lfingers 7.125020000000025
lthumb -2.3801336414800955 50.83903957321718
rfemur -0.22770178100866545 8.369286932538376 38.69558929146072
rtibia 24.520890840594895
rfoot -21.162566272990116 -7.870729815541818
rtoes 10.956688389995625
lfemur -22.190539787289335 2.9175602934269738 -13.63984345909603
ltibia 56.49980468474938
lfoot -2.097813600119067 -4.585647506546366
ltoes -6.998703427924216
217
root 0 0 0 1.714246718472143 -10.729024130426707 0.7537307086204839
lowerback 0.05223994879786242 -1.5456191915086517 -2.5069233194505642
upperback -0.6636190004677864 -2.0267618849928772 1.9324864573406777
thorax -0.5264384526911278 -0.9933493601467864 3.3519016176483936
lowerneck -24.43830650367816 -1.545680754938183 -7.520394737282053
upperneck 28.472472667494323 0.48355659540892315 1.7187450675817268
head 13.71286479126968 -0.5747672510294228 2.16703079093721
rclavicle -1.825020630659446E-15 1.0021870825515528E-15
rhumerus -32.22921149555629 -3.9090253053197546 -81.03134588652543
rradius 30.671480845432026
rwrist 19.627454195825806
rhand -17.579456705354314 8.816919216808756
rfingers 7.125019999999941
rthumb 8.673631036948883 -21.010331431313226
lclavicle 1.218556892437734E-16 5.378087637190122E-16
lhumerus -21.568809790111874 -4.982182090175748 91.89364764692628
lradius 64.89385879338231
lwrist 1.6577910203270032
lhand -29.04900730092978 20.814572921793555
lfingers 7.125020000000025
lthumb -2.4083657965664944 50.79828753402352
rfemur 2.628694672646855 8.786584060650174 38.62192828995578
rtibia 21.953924499813137
rfoot -23.02870045114542 -8.570899901763426
rtoes 7.433866669368044
lfemur -24.862961136933034 2.6299509045909724 -12.989814381328591
ltibia 53.35816728871714
lfoot -4.13158567693874 -2.721277790142384
ltoes -6.325092105190816
218
root 0 0 0 1.7319845198307957 -10.697541652743912 0.7666767456135496
lowerback 0.03474904806607815 -1.5360897869273697 -2.5318696987979936
upperback -0.6601928703206057 -2.014465986233136 1.9166564586039714
thorax -0.5146161125139652 -0.9865648177621812 3.3508654210551327
lowerneck -24.44442887460178 -1.5904412560616636 -7.565460426218982
upperneck 28.342793909021225 0.3955232425770744 1.8346144646350084
head 13.653031657932354 -0.5949429847533194 2.1991811909868604
rclavicle -3.4651075824670004E-15 1.025449935174211E-15
rhumerus -31.33818841175664 -2.255404429422357 -81.8972645962083
rradius 31.466251046954387
rwrist 18.932228346830925
rhand -17.971730024381827 8.936718444688152
rfingers 7.125019999999942
rthumb 8.29579755507688 -20.907929438465537
lclavicle 4.241401441939389E-16 2.2635874427292813E-16
lhumerus -21.151159197816597 -4.382170359802442 91.60272587265928
lradius 64.75789467909058
lwrist 1.6700812240188054
lhand -28.945598433979892 20.73109280701296
lfingers 7.125020000000026
lthumb -2.3054561918450425 50.71414066282133
rfemur 5.147693940210317 8.976398263807802 38.26062971843606
rtibia 20.555823383108194
rfoot -23.611398293680807 -8.560375774646563
rtoes 3.9386780048993746
lfemur -28.124342691189096 1.4199267990247053 -11.739063409050992
ltibia 45.77867583499746
lfoot -6.015692140351771 0.06832244085218164
ltoes -5.609445392794731
